<?xml version="1.0" standalone="no"?>
<!DOCTYPE svg PUBLIC "-//W3C//DTD SVG 20010904//EN"
 "http://www.w3.org/TR/2001/REC-SVG-20010904/DTD/svg10.dtd">
<svg version="1.0" xmlns="http://www.w3.org/2000/svg"
 width="500.000000pt" height="500.000000pt" viewBox="0 0 500.000000 500.000000"
 preserveAspectRatio="xMidYMid meet">

<g transform="translate(0.000000,500.000000) scale(0.100000,-0.100000)"
fill="#000000" stroke="none">
<path d="M2725 4488 c-71 -33 -160 -73 -196 -88 l-66 -27 -25 84 -24 85 -74
-107 c-41 -59 -85 -122 -97 -140 -12 -18 -28 -35 -36 -38 -9 -3 -57 5 -109 19
-172 45 -260 65 -267 62 -5 -2 11 -46 35 -98 23 -52 41 -96 40 -98 -6 -5 -227
-41 -269 -44 l-39 -2 29 -26 c16 -14 49 -41 73 -61 l44 -35 -55 -31 c-30 -17
-104 -57 -166 -89 l-112 -59 85 -3 84 -3 -15 -29 c-13 -26 -21 -30 -55 -30
-36 0 -41 -4 -60 -40 -23 -45 -23 -45 25 -26 19 8 37 11 39 7 3 -4 -11 -37
-30 -74 l-35 -67 40 0 40 0 -60 -106 c-58 -103 -68 -134 -32 -102 14 12 100
58 109 58 3 0 -15 -84 -26 -120 -16 -57 -13 -61 25 -38 20 11 39 17 43 13 4
-3 8 -137 10 -296 l3 -289 -41 0 -40 0 0 -90 0 -90 40 0 40 0 0 -47 c1 -47 2
-49 73 -110 39 -34 73 -60 74 -59 2 1 -7 50 -19 109 l-21 107 -38 0 c-27 0
-39 5 -43 18 -5 17 -26 140 -26 155 0 4 19 7 41 7 l42 0 -7 38 c-3 20 -9 120
-12 222 -5 141 -2 215 10 310 14 111 42 243 61 292 5 14 0 17 -34 20 l-40 3
24 58 c13 32 35 76 49 98 24 35 30 39 69 39 37 0 45 4 66 36 72 105 245 214
403 254 175 43 416 50 538 14 165 -48 271 -120 363 -245 36 -48 34 -59 -8 -59
-19 0 -35 -2 -35 -5 0 -3 9 -23 20 -45 11 -21 29 -64 40 -94 20 -53 22 -55 62
-58 l42 -3 17 -90 c40 -200 46 -431 18 -660 -15 -128 -14 -125 -58 -125 l-39
0 -12 -67 c-6 -38 -14 -78 -17 -91 -5 -22 -3 -23 38 -20 l44 3 10 85 10 85 41
3 41 3 7 52 c4 29 13 108 22 177 8 69 21 167 29 218 15 89 14 94 -6 133 -11
23 -18 43 -16 46 3 2 46 7 96 10 50 3 91 8 91 11 0 3 -18 36 -40 74 -22 39
-40 72 -40 74 0 3 16 2 35 -2 38 -7 41 1 26 56 -6 21 -14 26 -51 30 l-43 5
-24 69 c-12 39 -23 76 -23 83 0 20 62 43 113 43 24 0 51 6 61 13 15 11 4 22
-108 97 -69 47 -126 88 -126 92 0 4 53 34 118 67 l117 59 -65 30 c-36 16 -112
49 -170 72 -58 24 -108 46 -113 50 -4 3 13 32 38 64 25 32 45 63 45 68 0 6
-12 8 -27 5 -64 -12 -253 -30 -259 -24 -4 3 1 38 10 78 9 39 16 78 16 85 0 9
-48 -10 -137 -56 -76 -38 -139 -65 -141 -61 -1 5 6 30 16 57 32 81 42 124 29
123 -7 -1 -70 -28 -142 -61z"/>
<path d="M1984 3030 c-41 -27 -58 -68 -52 -130 8 -78 60 -120 149 -120 34 0
48 6 79 38 50 49 60 103 31 160 -11 23 -31 48 -43 56 -33 23 -125 21 -164 -4z"/>
<path d="M3272 2433 c-57 -234 -58 -228 21 -167 48 37 51 45 63 147 l6 57 -40
0 c-39 0 -42 -2 -50 -37z"/>
<path d="M3145 2219 c-11 -17 1 -21 15 -4 8 9 8 15 2 15 -6 0 -14 -5 -17 -11z"/>
<path d="M3119 1978 c-13 -28 -45 -82 -71 -120 -46 -66 -46 -68 -22 -68 20 0
24 5 24 28 0 15 9 41 21 57 28 42 81 146 76 151 -2 2 -14 -19 -28 -48z"/>
<path d="M1906 1884 c-3 -9 -6 -33 -6 -55 l0 -39 41 0 41 0 -6 -42 c-3 -24 -5
-69 -5 -100 l-1 -58 -39 0 c-31 0 -41 -5 -46 -19 -5 -15 -17 -21 -53 -24 l-47
-3 48 -2 c35 -2 47 -6 47 -17 0 -57 -24 -211 -33 -217 -7 -4 -36 -8 -64 -8
-29 0 -53 -3 -53 -8 0 -4 -20 -12 -45 -18 -37 -8 -48 -7 -62 5 -9 9 24 -27 73
-80 99 -105 234 -263 234 -273 0 -3 -18 -6 -40 -6 -38 0 -39 -1 -28 -20 10
-15 24 -20 63 -21 50 0 50 -1 99 -67 245 -333 474 -668 464 -677 -2 -2 -77 53
-168 122 -177 133 -605 421 -812 546 -111 68 -132 77 -175 77 -30 0 -59 7 -77
19 l-29 20 39 3 39 3 -65 37 c-101 56 -108 56 -160 3 -41 -42 -48 -45 -95 -45
-39 0 -53 -4 -63 -20 -11 -19 -10 -20 29 -20 l41 0 -71 -76 c-123 -132 -270
-331 -388 -529 -67 -111 -146 -265 -140 -271 2 -2 963 -3 2136 -2 l2131 3 -62
95 c-162 249 -330 461 -507 643 l-135 137 -47 0 c-32 0 -54 6 -70 20 l-24 19
45 1 45 0 -35 28 c-19 15 -48 36 -65 48 l-30 20 -62 -48 c-54 -41 -69 -48
-108 -48 -27 0 -57 -7 -73 -17 l-26 -18 40 -5 41 -5 -214 -160 c-118 -88 -231
-173 -251 -188 -20 -16 -134 -100 -252 -188 -118 -87 -236 -175 -262 -194 -27
-19 -48 -34 -48 -31 0 17 262 444 392 638 43 65 78 120 78 123 0 3 -18 5 -40
5 -38 0 -40 2 -30 20 8 16 21 20 58 20 46 1 48 2 82 53 19 28 66 95 105 147
92 122 88 115 52 116 -39 1 -171 36 -175 47 -2 4 -16 8 -30 8 -25 2 -25 2 -4
6 24 5 24 5 17 114 -6 81 -4 113 5 124 9 10 9 15 1 15 -6 0 -11 9 -11 20 0 16
7 20 34 20 l34 0 4 78 c2 42 1 87 -1 100 -6 38 -44 27 -102 -29 -97 -93 -194
-148 -264 -149 -22 0 -67 -7 -100 -15 -73 -18 -121 -19 -222 -3 -59 9 -72 13
-53 18 l25 7 -30 8 c-69 18 -215 106 -264 159 -19 20 -34 26 -67 26 -38 0 -47
5 -92 55 -38 41 -51 51 -56 39z"/>
<path d="M1633 1533 c15 -2 39 -2 55 0 15 2 2 4 -28 4 -30 0 -43 -2 -27 -4z"/>
<path d="M3198 1533 c17 -2 47 -2 65 0 17 2 3 4 -33 4 -36 0 -50 -2 -32 -4z"/>
<path d="M1493 1523 c15 -2 37 -2 50 0 12 2 0 4 -28 4 -27 0 -38 -2 -22 -4z"/>
<path d="M3358 1523 c18 -2 45 -2 60 0 15 2 0 4 -33 4 -33 0 -45 -2 -27 -4z"/>
<path d="M1289 1453 c-13 -16 -12 -17 4 -4 16 13 21 21 13 21 -2 0 -10 -8 -17
-17z"/>
<path d="M1249 1413 c-13 -16 -12 -17 4 -4 9 7 17 15 17 17 0 8 -8 3 -21 -13z"/>
<path d="M3359 1333 c-13 -16 -12 -17 4 -4 16 13 21 21 13 21 -2 0 -10 -8 -17
-17z"/>
</g>
</svg>
