<?xml version="1.0" standalone="no"?>
<!DOCTYPE svg PUBLIC "-//W3C//DTD SVG 20010904//EN"
 "http://www.w3.org/TR/2001/REC-SVG-20010904/DTD/svg10.dtd">
<svg version="1.0" xmlns="http://www.w3.org/2000/svg"
 width="300.000000pt" height="298.000000pt" viewBox="0 0 300.000000 298.000000"
 preserveAspectRatio="xMidYMid meet">
<metadata>
Created by potrace 1.10, written by Peter Selinger 2001-2011
</metadata>
<g transform="translate(0.000000,298.000000) scale(0.100000,-0.100000)"
fill="#000000" stroke="none">
<path d="M1980 2550 c0 -12 -7 -50 -16 -85 l-16 -64 -57 43 c-31 24 -67 56
-80 70 -36 38 -43 32 -36 -28 l7 -55 -63 25 c-35 14 -90 35 -121 48 -31 13
-59 22 -61 19 -3 -2 10 -28 29 -56 19 -28 34 -55 34 -59 0 -5 -17 -8 -37 -8
-87 0 -278 -46 -252 -60 8 -4 38 -11 67 -15 28 -4 52 -10 52 -14 0 -4 -17 -15
-37 -25 -54 -25 -193 -107 -193 -113 0 -6 105 6 129 15 11 3 9 -2 -6 -20 -13
-13 -23 -28 -23 -32 0 -5 -13 -25 -30 -46 -53 -66 -34 -66 55 1 31 23 57 40
60 38 2 -3 0 -22 -5 -44 -13 -59 1 -61 45 -5 21 27 41 47 43 45 3 -2 7 -34 9
-71 2 -36 8 -76 12 -87 7 -19 11 -16 30 27 25 58 26 62 6 46 -13 -11 -15 -7
-15 24 0 20 -6 46 -12 59 -7 12 -14 24 -15 25 -1 2 -18 -1 -39 -8 -24 -8 -39
-9 -43 -2 -3 5 -15 11 -25 13 -11 2 -20 13 -22 23 -1 10 -8 22 -14 26 -7 4 8
19 37 38 27 18 59 42 72 56 19 20 20 24 7 29 -32 12 -14 24 50 35 74 12 114
34 114 61 0 29 9 30 67 10 71 -24 89 -24 110 1 20 23 27 24 45 7 30 -29 89
-58 106 -53 10 4 25 18 32 31 18 33 29 28 49 -22 25 -64 47 -83 98 -83 23 0
43 -3 43 -6 0 -3 -9 -17 -20 -31 -24 -31 -18 -41 62 -109 l56 -47 -28 -28 -28
-29 18 -58 c10 -32 21 -79 25 -104 6 -40 4 -47 -12 -52 -23 -7 -41 -55 -44
-118 -3 -44 -4 -47 -25 -42 -18 5 -27 -1 -44 -28 -11 -18 -23 -50 -27 -71 l-6
-39 -56 7 c-31 3 -67 9 -81 11 -19 4 -21 3 -10 -4 8 -5 43 -13 78 -17 40 -4
65 -12 69 -21 3 -8 -3 -59 -12 -113 -17 -95 -19 -100 -49 -113 -30 -14 -28
-14 18 -2 19 4 26 -4 54 -58 18 -35 34 -70 36 -78 1 -8 8 -26 16 -40 7 -14 12
-26 11 -28 -5 -6 24 -72 33 -72 5 0 7 -3 3 -6 -3 -4 0 -19 8 -33 7 -15 23 -58
36 -96 12 -38 34 -94 49 -125 56 -113 130 -308 130 -344 0 -20 -54 -71 -107
-102 -26 -15 -59 -37 -73 -49 -14 -13 -38 -30 -55 -39 -16 -10 -21 -14 -10
-11 53 19 55 18 51 -6 -3 -13 -5 -26 -5 -29 -1 -3 -5 1 -10 8 -6 10 -10 4 -15
-19 -6 -31 -7 -31 -20 -13 -8 10 -12 23 -9 29 4 5 2 7 -2 2 -5 -4 -17 24 -26
63 -10 39 -27 91 -39 116 -13 30 -17 51 -11 58 6 7 7 49 3 101 l-7 90 29 24
c27 23 28 28 22 82 -3 32 -12 75 -21 96 -8 21 -19 92 -24 158 -5 66 -15 131
-21 145 -10 24 -10 24 -5 -5 3 -16 8 -79 11 -140 4 -70 13 -129 25 -163 26
-72 25 -142 -2 -171 -21 -22 -21 -22 -43 -3 -24 22 -80 42 -134 47 -20 2 -53
7 -72 10 -60 9 -296 8 -316 -3 -10 -5 -25 -7 -33 -4 -17 6 -120 -27 -143 -46
-21 -18 -42 -11 -62 20 -13 21 -12 35 5 138 34 193 46 315 31 306 -5 -3 -10
-32 -11 -66 -1 -33 -9 -95 -16 -138 -8 -42 -20 -112 -27 -154 -12 -75 -11 -78
11 -102 22 -23 24 -33 23 -133 -1 -93 -5 -116 -26 -163 -29 -65 -41 -110 -29
-110 4 0 17 29 27 65 21 74 38 94 61 75 12 -10 49 -11 163 -5 81 5 192 8 247
7 55 -1 139 -2 187 -3 50 -1 94 3 101 9 26 22 43 -12 86 -163 33 -117 40 -173
24 -179 -8 -4 -212 -6 -453 -6 -380 0 -439 2 -450 15 -9 11 -11 39 -7 98 5 78
5 80 -6 34 -13 -54 -29 -55 -20 -1 4 22 2 34 -6 34 -6 0 -11 -16 -11 -37 0
-51 -17 -30 -24 29 l-6 47 32 -10 c47 -13 48 -11 3 13 -22 11 -50 30 -63 41
-12 12 -46 33 -74 47 -29 14 -56 32 -62 41 -9 16 16 113 64 244 28 75 184 405
228 480 33 56 92 133 107 139 8 3 15 12 15 21 0 8 9 15 20 15 11 0 20 5 20 10
0 6 -5 10 -10 10 -7 0 -10 29 -8 78 l3 77 75 13 c41 7 102 20 135 28 33 8 71
18 85 21 14 3 27 10 30 14 3 4 28 12 55 17 l50 10 -46 1 c-39 1 -48 5 -52 22
-3 13 3 39 14 61 24 48 21 84 -14 161 -40 88 -85 105 -132 50 -11 -13 -24 -23
-29 -23 -14 0 -35 33 -36 54 0 11 -5 16 -14 13 -10 -4 -14 6 -14 40 -1 41 -15
74 -26 62 -7 -8 -13 -189 -7 -194 4 -2 16 10 27 28 l19 32 9 -67 c4 -38 12
-68 15 -68 4 0 22 22 39 48 63 98 83 101 120 14 34 -82 36 -116 7 -150 -14
-16 -36 -33 -50 -36 -23 -6 -53 -52 -41 -63 9 -9 26 8 26 27 0 10 7 20 15 24
17 6 19 -3 6 -36 -8 -21 -20 -25 -135 -42 l-126 -19 -53 28 c-62 33 -94 61
-112 96 -12 22 -11 34 5 87 16 52 18 71 9 118 -10 51 -7 123 7 209 4 24 3 27
-6 13 -17 -27 -26 -157 -17 -225 7 -50 6 -71 -7 -103 -32 -81 -13 -133 69
-185 30 -19 59 -35 66 -35 7 0 8 -4 2 -12 -5 -7 -6 -51 -3 -98 l5 -84 -47 -47
c-67 -67 -108 -135 -210 -352 -110 -235 -120 -260 -169 -417 -45 -145 -51
-129 72 -187 l76 -36 7 -71 c7 -73 20 -96 57 -96 16 0 17 -7 12 -50 l-6 -50
502 0 c279 0 501 4 501 9 0 5 -6 27 -14 49 l-15 41 37 19 c34 17 37 23 42 70
5 51 5 51 65 81 68 34 153 123 138 144 -6 7 -22 48 -37 92 -16 44 -54 138 -86
210 -32 72 -67 159 -78 195 -32 102 -127 329 -152 362 -24 33 -24 33 5 167 9
43 12 78 7 83 -8 8 16 119 29 132 3 4 14 -10 25 -29 27 -50 44 -45 44 13 0 26
3 77 6 114 l7 67 27 -19 c25 -18 50 -26 50 -16 0 13 -64 244 -71 259 -12 22
-1 22 67 0 61 -19 73 -14 51 18 -18 25 -187 169 -199 169 -27 0 4 20 83 55 79
34 87 40 67 48 -13 5 -71 7 -131 5 l-107 -3 -15 45 c-8 25 -20 69 -26 98 -10
50 -30 82 -50 82 -5 0 -9 -9 -9 -20z m-211 -991 c-29 -18 -36 -10 -17 21 11
17 14 18 21 4 6 -11 5 -19 -4 -25z m-60 -1011 c17 -68 31 -126 31 -130 0 -5
-8 -8 -18 -8 -12 0 -23 16 -36 53 -10 28 -27 70 -37 91 -11 22 -19 52 -19 68
0 15 -4 28 -10 28 -6 0 -10 -47 -10 -120 0 -111 -1 -120 -19 -120 -16 0 -20
14 -32 123 l-14 122 30 6 c16 4 46 7 66 8 l36 1 32 -122z m24 75 c-7 -61 -9
-62 -21 -21 -5 18 -13 41 -17 51 -6 14 -2 17 19 17 25 0 25 -1 19 -47z m97
-83 l0 -130 -28 0 c-35 0 -43 7 -32 29 11 22 44 211 37 217 -7 7 -23 -50 -39
-134 -10 -53 -13 -60 -20 -41 -5 12 -6 60 -2 106 l7 83 38 0 39 0 0 -130z
m-300 86 c0 -31 -4 -35 -32 -41 -18 -4 -39 -12 -45 -17 -7 -6 -29 -8 -48 -6
l-35 4 0 -48 c0 -26 5 -48 10 -48 6 0 10 9 10 19 0 18 7 20 74 18 l75 -2 11
-44 c6 -24 10 -45 8 -47 -2 -1 -48 -4 -103 -6 l-100 -3 -3 98 -3 97 28 12 c21
8 93 31 151 47 1 1 2 -14 2 -33z m476 5 c32 -11 55 -20 49 -21 -5 0 -2 -5 8
-11 14 -8 17 -24 17 -89 0 -43 -4 -82 -10 -85 -5 -3 -57 -9 -114 -12 l-105 -6
-3 128 -3 127 51 -6 c27 -3 77 -15 110 -25z m-466 -80 c0 -23 -5 -30 -27 -34
-33 -6 -30 -8 -38 25 -6 23 -4 27 22 31 15 2 31 5 36 6 4 0 7 -12 7 -28z m-80
-11 c0 -5 -4 -10 -9 -10 -5 0 -23 -3 -40 -6 -24 -5 -31 -3 -31 10 0 12 10 16
40 16 22 0 40 -4 40 -10z m198 -63 c12 -33 22 -61 22 -63 0 -2 -11 -4 -25 -4
-24 0 -25 3 -25 54 0 30 -3 63 -6 73 -5 12 -4 15 3 8 5 -5 19 -36 31 -68z"/>
<path d="M1898 630 c-4 -14 -9 -47 -12 -75 -3 -27 -8 -70 -12 -95 -5 -42 -4
-44 10 -26 9 11 16 32 16 48 0 24 4 28 29 28 15 0 50 3 76 7 l48 6 -6 -31 c-5
-24 -3 -32 8 -32 11 0 15 13 15 49 0 28 -4 53 -10 56 -5 3 -10 2 -10 -3 0 -13
-41 -2 -58 15 -7 7 -29 13 -47 13 -31 0 -34 3 -37 33 -4 30 -4 31 -10 7z m60
-59 c23 -14 10 -45 -21 -48 -24 -2 -27 2 -27 28 0 30 20 38 48 20z m87 -31 c4
-6 -7 -10 -24 -10 -17 0 -31 5 -31 10 0 6 11 10 24 10 14 0 28 -4 31 -10z"/>
<path d="M1355 1983 c-41 -10 -41 -25 0 -17 22 5 52 8 68 8 15 -1 27 3 27 7 0
9 -60 10 -95 2z"/>
<path d="M1344 1935 c-4 -9 -4 -26 -2 -40 3 -13 0 -26 -6 -28 -6 -2 -7 -8 -3
-13 4 -4 17 -3 28 4 18 12 20 11 17 -5 -2 -10 -10 -17 -16 -15 -15 3 -16 -74
-1 -83 31 -20 99 45 113 109 l7 29 -66 -6 c-58 -6 -66 -4 -61 9 3 9 6 22 6 29
0 8 14 15 33 18 31 4 31 4 -6 5 -25 1 -39 -3 -43 -13z m89 -110 c-8 -25 -17
-45 -19 -45 -2 0 -2 19 1 43 l5 42 -15 -47 c-14 -44 -44 -84 -32 -42 4 11 9
33 13 49 9 42 12 45 39 45 l24 0 -16 -45z"/>
<path d="M1695 1796 c-15 -22 -15 -29 -4 -42 10 -13 10 -19 0 -36 -10 -17 -9
-23 6 -41 10 -12 19 -24 20 -26 6 -9 42 46 42 64 0 16 -2 15 -15 -8 -12 -23
-18 -26 -29 -17 -11 9 -12 16 -2 31 9 14 9 24 0 37 -7 12 -8 24 -1 36 16 28 1
30 -17 2z"/>
<path d="M1677 1169 c-33 -25 -57 -68 -57 -103 0 -27 32 -87 67 -126 12 -13
25 -37 29 -53 6 -30 31 -34 44 -7 3 8 16 34 28 57 12 23 22 47 22 53 0 6 9 21
21 33 38 41 11 119 -53 153 -37 19 -68 17 -101 -7z m88 -24 c34 -14 55 -46 55
-83 0 -14 -11 -17 -64 -17 -39 0 -70 -5 -77 -12 -21 -21 -29 -15 -29 25 1 40
11 58 50 85 29 20 23 20 65 2z m9 -148 c17 -13 17 -14 -8 -30 -23 -16 -25 -22
-20 -59 5 -30 4 -39 -4 -34 -7 4 -12 23 -12 41 0 24 -6 38 -20 45 -22 12 -27
36 -7 43 23 10 53 7 71 -6z"/>
</g>
</svg>
